<svg xmlns="http://www.w3.org/2000/svg" viewBox="0 0 96 64" role="img" aria-label="Sri Lanka flag">
  <defs>
    <clipPath id="r">
      <rect width="96" height="64" rx="8" ry="8"/>
    </clipPath>
  </defs>
  <g clip-path="url(#r)">
    <rect width="96" height="64" fill="#ffb915"/>
    <rect x="4" y="4" width="88" height="56" fill="#ffb915"/>
    <rect x="10" y="10" width="18" height="44" fill="#006a4e"/>
    <rect x="28" y="10" width="18" height="44" fill="#f9a602"/>
    <rect x="46" y="10" width="40" height="44" fill="#8d153a"/>
    <!-- simple lion-like mark (stylized, minimal) -->
    <path fill="#ffb915" d="M62 23c-2 0-3 1-3 3v2c0 2 1 3 3 3h2v4h-5v4h5v3h4v-3h4v-4h-4v-4h2c2 0 3-1 3-3v-2c0-2-1-3-3-3h-8z"/>
    <circle cx="56" cy="16" r="2" fill="#ffb915"/>
    <circle cx="56" cy="48" r="2" fill="#ffb915"/>
    <circle cx="88" cy="16" r="2" fill="#ffb915"/>
    <circle cx="88" cy="48" r="2" fill="#ffb915"/>
  </g>
</svg>
